<mxfile host="app.diagrams.net" modified="2022-01-10T17:10:29.188Z" agent="5.0 (Windows NT 10.0; Win64; x64) AppleWebKit/537.36 (KHTML, like Gecko) Chrome/97.0.4692.71 Safari/537.36" etag="Q0i1qDqCU8jROzIo0zxj" version="15.9.6" type="github">
  <diagram id="yPxyJZ8AM_hMuL3Unpa9" name="complex gitflow">
    <mxGraphModel dx="2562" dy="1416" grid="1" gridSize="10" guides="1" tooltips="1" connect="1" arrows="1" fold="1" page="1" pageScale="1" pageWidth="1169" pageHeight="827" math="0" shadow="0">
      <root>
        <mxCell id="0" />
        <mxCell id="1" parent="0" />
        <mxCell id="EV5ATv0Y9bvTsMbR89la-1" value="" style="edgeStyle=orthogonalEdgeStyle;rounded=0;html=1;jettySize=auto;orthogonalLoop=1;plain-blue;endArrow=none;endFill=0;strokeWidth=4;strokeColor=#000000;entryX=0;entryY=0.5;entryDx=0;entryDy=0;entryPerimeter=0;" edge="1" parent="1" source="EV5ATv0Y9bvTsMbR89la-2" target="EV5ATv0Y9bvTsMbR89la-4">
          <mxGeometry x="539.25" y="533" as="geometry">
            <mxPoint x="699.25" y="533" as="targetPoint" />
          </mxGeometry>
        </mxCell>
        <mxCell id="EV5ATv0Y9bvTsMbR89la-39" style="edgeStyle=orthogonalEdgeStyle;shape=connector;rounded=0;orthogonalLoop=1;jettySize=auto;html=1;entryX=0;entryY=0.5;entryDx=0;entryDy=0;entryPerimeter=0;labelBackgroundColor=default;fontFamily=Helvetica;fontSize=11;fontColor=default;endArrow=none;endFill=0;strokeColor=#000000;strokeWidth=4;fillColor=#DAE8FC;gradientColor=#7EA6E0;curved=1;" edge="1" parent="1" source="EV5ATv0Y9bvTsMbR89la-2" target="EV5ATv0Y9bvTsMbR89la-33">
          <mxGeometry relative="1" as="geometry" />
        </mxCell>
        <mxCell id="EV5ATv0Y9bvTsMbR89la-63" style="edgeStyle=orthogonalEdgeStyle;shape=connector;curved=1;rounded=0;orthogonalLoop=1;jettySize=auto;html=1;entryX=0;entryY=0.5;entryDx=0;entryDy=0;entryPerimeter=0;labelBackgroundColor=default;fontFamily=Helvetica;fontSize=11;fontColor=default;endArrow=none;endFill=0;strokeColor=#000000;strokeWidth=4;fillColor=#DAE8FC;gradientColor=#7EA6E0;shadow=0;sketch=0;" edge="1" parent="1" source="EV5ATv0Y9bvTsMbR89la-2" target="EV5ATv0Y9bvTsMbR89la-44">
          <mxGeometry relative="1" as="geometry">
            <Array as="points">
              <mxPoint x="565" y="533" />
              <mxPoint x="565" y="921" />
            </Array>
          </mxGeometry>
        </mxCell>
        <mxCell id="EV5ATv0Y9bvTsMbR89la-2" value="" style="verticalLabelPosition=bottom;verticalAlign=top;html=1;strokeWidth=4;shape=mxgraph.flowchart.on-page_reference;plain-blue;gradientColor=none;fillColor=#B5E3Fe;strokeColor=#000000;" vertex="1" parent="1">
          <mxGeometry x="509.25" y="518" width="30" height="30" as="geometry" />
        </mxCell>
        <mxCell id="EV5ATv0Y9bvTsMbR89la-75" style="edgeStyle=orthogonalEdgeStyle;curved=1;rounded=0;orthogonalLoop=1;jettySize=auto;html=1;entryX=0;entryY=0.5;entryDx=0;entryDy=0;entryPerimeter=0;labelBackgroundColor=default;fontFamily=Helvetica;fontSize=11;fontColor=default;endArrow=none;endFill=0;strokeColor=#000000;strokeWidth=4;fillColor=#DAE8FC;gradientColor=#7EA6E0;" edge="1" parent="1" source="EV5ATv0Y9bvTsMbR89la-4" target="EV5ATv0Y9bvTsMbR89la-47">
          <mxGeometry relative="1" as="geometry">
            <Array as="points">
              <mxPoint x="1095" y="533" />
              <mxPoint x="1095" y="921" />
            </Array>
          </mxGeometry>
        </mxCell>
        <mxCell id="EV5ATv0Y9bvTsMbR89la-83" value="" style="edgeStyle=orthogonalEdgeStyle;curved=1;rounded=0;orthogonalLoop=1;jettySize=auto;html=1;labelBackgroundColor=default;fontFamily=Helvetica;fontSize=11;fontColor=default;endArrow=none;endFill=0;strokeColor=#000000;strokeWidth=4;fillColor=#DAE8FC;gradientColor=#7EA6E0;entryX=0;entryY=0.5;entryDx=0;entryDy=0;entryPerimeter=0;" edge="1" parent="1" source="EV5ATv0Y9bvTsMbR89la-4" target="EV5ATv0Y9bvTsMbR89la-5">
          <mxGeometry relative="1" as="geometry">
            <mxPoint x="1215" y="637" as="targetPoint" />
          </mxGeometry>
        </mxCell>
        <mxCell id="EV5ATv0Y9bvTsMbR89la-86" value="" style="edgeStyle=orthogonalEdgeStyle;curved=1;rounded=0;orthogonalLoop=1;jettySize=auto;html=1;labelBackgroundColor=default;fontFamily=Helvetica;fontSize=11;fontColor=default;endArrow=none;endFill=0;strokeColor=#000000;strokeWidth=4;fillColor=#DAE8FC;gradientColor=#7EA6E0;" edge="1" parent="1" source="EV5ATv0Y9bvTsMbR89la-4" target="EV5ATv0Y9bvTsMbR89la-84">
          <mxGeometry relative="1" as="geometry">
            <mxPoint x="1345" y="533" as="targetPoint" />
          </mxGeometry>
        </mxCell>
        <mxCell id="EV5ATv0Y9bvTsMbR89la-96" style="edgeStyle=orthogonalEdgeStyle;curved=1;rounded=0;sketch=0;orthogonalLoop=1;jettySize=auto;html=1;entryX=0;entryY=0.5;entryDx=0;entryDy=0;entryPerimeter=0;shadow=0;labelBackgroundColor=default;fontFamily=Helvetica;fontSize=11;fontColor=default;endArrow=none;endFill=0;strokeColor=#000000;strokeWidth=4;fillColor=#DAE8FC;gradientColor=#7EA6E0;" edge="1" parent="1" source="EV5ATv0Y9bvTsMbR89la-4" target="EV5ATv0Y9bvTsMbR89la-77">
          <mxGeometry relative="1" as="geometry" />
        </mxCell>
        <mxCell id="EV5ATv0Y9bvTsMbR89la-4" value="" style="verticalLabelPosition=bottom;verticalAlign=top;html=1;strokeWidth=4;shape=mxgraph.flowchart.on-page_reference;plain-blue;gradientColor=none;strokeColor=#000000;fillColor=#B5E3FE;" vertex="1" parent="1">
          <mxGeometry x="1035" y="518" width="30" height="30" as="geometry" />
        </mxCell>
        <mxCell id="EV5ATv0Y9bvTsMbR89la-87" style="edgeStyle=orthogonalEdgeStyle;curved=1;rounded=0;orthogonalLoop=1;jettySize=auto;html=1;labelBackgroundColor=default;fontFamily=Helvetica;fontSize=11;fontColor=default;endArrow=none;endFill=0;strokeColor=#000000;strokeWidth=4;fillColor=#DAE8FC;gradientColor=#7EA6E0;entryX=0;entryY=0.5;entryDx=0;entryDy=0;entryPerimeter=0;" edge="1" parent="1" source="EV5ATv0Y9bvTsMbR89la-5" target="EV5ATv0Y9bvTsMbR89la-84">
          <mxGeometry relative="1" as="geometry">
            <mxPoint x="1345" y="533" as="targetPoint" />
          </mxGeometry>
        </mxCell>
        <mxCell id="EV5ATv0Y9bvTsMbR89la-5" value="" style="verticalLabelPosition=bottom;verticalAlign=top;html=1;strokeWidth=4;shape=mxgraph.flowchart.on-page_reference;fillColor=#ffcd28;gradientColor=#ffa500;strokeColor=#d79b00;" vertex="1" parent="1">
          <mxGeometry x="1195" y="390" width="30" height="30" as="geometry" />
        </mxCell>
        <mxCell id="EV5ATv0Y9bvTsMbR89la-6" value="" style="edgeStyle=orthogonalEdgeStyle;rounded=0;html=1;jettySize=auto;orthogonalLoop=1;strokeWidth=4;endArrow=none;endFill=0;" edge="1" parent="1" target="EV5ATv0Y9bvTsMbR89la-2">
          <mxGeometry x="439.25" y="533" as="geometry">
            <mxPoint x="397" y="533" as="sourcePoint" />
          </mxGeometry>
        </mxCell>
        <mxCell id="EV5ATv0Y9bvTsMbR89la-7" value="master" style="text;html=1;strokeColor=none;fillColor=none;align=center;verticalAlign=middle;whiteSpace=wrap;overflow=hidden;fontSize=14;fontStyle=1;fontFamily=Courier New;" vertex="1" parent="1">
          <mxGeometry x="309.5" y="512" width="55.5" height="42" as="geometry" />
        </mxCell>
        <mxCell id="EV5ATv0Y9bvTsMbR89la-8" value="The master branch" style="text;html=1;strokeColor=none;fillColor=none;align=left;verticalAlign=middle;whiteSpace=wrap;overflow=hidden;fontSize=14;fontStyle=0;fontColor=#009900;" vertex="1" parent="1">
          <mxGeometry x="328.13" y="548" width="146.75" height="20" as="geometry" />
        </mxCell>
        <mxCell id="EV5ATv0Y9bvTsMbR89la-10" value="Tag: v1.0.0" style="text;html=1;strokeColor=none;fillColor=none;align=center;verticalAlign=middle;whiteSpace=wrap;overflow=hidden;fontSize=14;" vertex="1" parent="1">
          <mxGeometry x="489.25" y="492" width="75.75" height="20" as="geometry" />
        </mxCell>
        <mxCell id="EV5ATv0Y9bvTsMbR89la-11" value="Tag: v1.1.0" style="text;html=1;strokeColor=none;fillColor=none;align=center;verticalAlign=middle;whiteSpace=wrap;overflow=hidden;fontSize=14;" vertex="1" parent="1">
          <mxGeometry x="991.75" y="492" width="110" height="20" as="geometry" />
        </mxCell>
        <mxCell id="EV5ATv0Y9bvTsMbR89la-12" value="" style="edgeStyle=orthogonalEdgeStyle;rounded=0;orthogonalLoop=1;jettySize=auto;html=1;fontSize=12;fontColor=#000000;entryX=0;entryY=0.5;entryDx=0;entryDy=0;" edge="1" parent="1" source="EV5ATv0Y9bvTsMbR89la-13" target="EV5ATv0Y9bvTsMbR89la-10">
          <mxGeometry relative="1" as="geometry">
            <mxPoint x="469.25" y="502" as="targetPoint" />
            <Array as="points">
              <mxPoint x="469.25" y="502" />
              <mxPoint x="469.25" y="502" />
            </Array>
          </mxGeometry>
        </mxCell>
        <mxCell id="EV5ATv0Y9bvTsMbR89la-13" value="&lt;div style=&quot;text-align: center&quot;&gt;&lt;span&gt;&lt;font style=&quot;font-size: 14px&quot;&gt;每一个v tag代表一次生产环境发版版本&lt;/font&gt;&lt;/span&gt;&lt;/div&gt;" style="text;html=1;strokeColor=none;fillColor=none;align=left;verticalAlign=middle;whiteSpace=wrap;overflow=hidden;fontSize=11;fontStyle=0;fontColor=#000000;" vertex="1" parent="1">
          <mxGeometry x="341.51" y="472" width="120" height="38" as="geometry" />
        </mxCell>
        <mxCell id="EV5ATv0Y9bvTsMbR89la-24" value="" style="edgeStyle=orthogonalEdgeStyle;rounded=0;html=1;jettySize=auto;orthogonalLoop=1;strokeWidth=4;endArrow=none;endFill=0;" edge="1" parent="1" target="EV5ATv0Y9bvTsMbR89la-33">
          <mxGeometry x="439.25" y="713" as="geometry">
            <mxPoint x="397" y="713" as="sourcePoint" />
            <mxPoint x="509.25" y="713" as="targetPoint" />
          </mxGeometry>
        </mxCell>
        <mxCell id="EV5ATv0Y9bvTsMbR89la-25" value="develop" style="text;html=1;strokeColor=none;fillColor=none;align=center;verticalAlign=middle;whiteSpace=wrap;overflow=hidden;fontSize=14;fontStyle=1;fontFamily=Courier New;" vertex="1" parent="1">
          <mxGeometry x="309.5" y="692" width="65.5" height="42" as="geometry" />
        </mxCell>
        <mxCell id="EV5ATv0Y9bvTsMbR89la-26" value="The develop branch" style="text;html=1;strokeColor=none;fillColor=none;align=left;verticalAlign=middle;whiteSpace=wrap;overflow=hidden;fontSize=14;fontStyle=0;fontColor=#009900;" vertex="1" parent="1">
          <mxGeometry x="328.13" y="728" width="146.75" height="20" as="geometry" />
        </mxCell>
        <mxCell id="EV5ATv0Y9bvTsMbR89la-32" style="edgeStyle=orthogonalEdgeStyle;curved=1;rounded=0;html=1;exitX=1;exitY=0.5;exitPerimeter=0;endArrow=none;endFill=0;jettySize=auto;orthogonalLoop=1;strokeWidth=4;fontSize=15;" edge="1" parent="1" source="EV5ATv0Y9bvTsMbR89la-33" target="EV5ATv0Y9bvTsMbR89la-35">
          <mxGeometry relative="1" as="geometry">
            <Array as="points">
              <mxPoint x="621.5" y="713" />
              <mxPoint x="621.5" y="713" />
            </Array>
          </mxGeometry>
        </mxCell>
        <mxCell id="EV5ATv0Y9bvTsMbR89la-64" style="edgeStyle=orthogonalEdgeStyle;shape=connector;curved=1;rounded=0;orthogonalLoop=1;jettySize=auto;html=1;entryX=0;entryY=0.5;entryDx=0;entryDy=0;entryPerimeter=0;labelBackgroundColor=default;fontFamily=Helvetica;fontSize=11;fontColor=default;endArrow=none;endFill=0;strokeColor=#000000;strokeWidth=4;fillColor=#DAE8FC;gradientColor=#7EA6E0;" edge="1" parent="1" source="EV5ATv0Y9bvTsMbR89la-33" target="EV5ATv0Y9bvTsMbR89la-59">
          <mxGeometry relative="1" as="geometry" />
        </mxCell>
        <mxCell id="EV5ATv0Y9bvTsMbR89la-33" value="" style="verticalLabelPosition=bottom;verticalAlign=top;html=1;strokeWidth=4;shape=mxgraph.flowchart.on-page_reference;plain-purple;gradientColor=none;strokeColor=#000000;fillColor=#D5E8D4;" vertex="1" parent="1">
          <mxGeometry x="631.5" y="698" width="30" height="30" as="geometry" />
        </mxCell>
        <mxCell id="EV5ATv0Y9bvTsMbR89la-34" style="edgeStyle=orthogonalEdgeStyle;curved=1;rounded=0;html=1;exitX=1;exitY=0.5;exitPerimeter=0;entryX=0;entryY=0.5;entryPerimeter=0;endArrow=none;endFill=0;jettySize=auto;orthogonalLoop=1;strokeWidth=4;fontSize=15;" edge="1" parent="1" source="EV5ATv0Y9bvTsMbR89la-35" target="EV5ATv0Y9bvTsMbR89la-36">
          <mxGeometry relative="1" as="geometry" />
        </mxCell>
        <mxCell id="EV5ATv0Y9bvTsMbR89la-35" value="" style="verticalLabelPosition=bottom;verticalAlign=top;html=1;strokeWidth=4;shape=mxgraph.flowchart.on-page_reference;plain-purple;gradientColor=none;strokeColor=#000000;fillColor=#D5E8D4;" vertex="1" parent="1">
          <mxGeometry x="721.5" y="698" width="30" height="30" as="geometry" />
        </mxCell>
        <mxCell id="EV5ATv0Y9bvTsMbR89la-51" style="edgeStyle=orthogonalEdgeStyle;shape=connector;curved=1;rounded=0;orthogonalLoop=1;jettySize=auto;html=1;entryX=0;entryY=0.5;entryDx=0;entryDy=0;entryPerimeter=0;labelBackgroundColor=default;fontFamily=Helvetica;fontSize=11;fontColor=default;endArrow=none;endFill=0;strokeColor=#000000;strokeWidth=4;fillColor=#DAE8FC;gradientColor=#7EA6E0;exitX=1;exitY=0.5;exitDx=0;exitDy=0;exitPerimeter=0;" edge="1" parent="1" source="EV5ATv0Y9bvTsMbR89la-53" target="EV5ATv0Y9bvTsMbR89la-4">
          <mxGeometry relative="1" as="geometry">
            <mxPoint x="955" y="720" as="sourcePoint" />
          </mxGeometry>
        </mxCell>
        <mxCell id="EV5ATv0Y9bvTsMbR89la-54" value="" style="edgeStyle=orthogonalEdgeStyle;shape=connector;curved=1;rounded=0;orthogonalLoop=1;jettySize=auto;html=1;labelBackgroundColor=default;fontFamily=Helvetica;fontSize=11;fontColor=default;endArrow=none;endFill=0;strokeColor=#000000;strokeWidth=4;fillColor=#DAE8FC;gradientColor=#7EA6E0;" edge="1" parent="1" source="EV5ATv0Y9bvTsMbR89la-36" target="EV5ATv0Y9bvTsMbR89la-53">
          <mxGeometry relative="1" as="geometry" />
        </mxCell>
        <mxCell id="EV5ATv0Y9bvTsMbR89la-36" value="" style="verticalLabelPosition=bottom;verticalAlign=top;html=1;strokeWidth=4;shape=mxgraph.flowchart.on-page_reference;plain-purple;gradientColor=none;strokeColor=#000000;fillColor=#D5E8D4;" vertex="1" parent="1">
          <mxGeometry x="811.75" y="698" width="30" height="30" as="geometry" />
        </mxCell>
        <mxCell id="EV5ATv0Y9bvTsMbR89la-41" value="develop/xxx" style="text;html=1;strokeColor=none;fillColor=none;align=center;verticalAlign=middle;whiteSpace=wrap;overflow=hidden;fontSize=14;fontStyle=1;fontFamily=Courier New;" vertex="1" parent="1">
          <mxGeometry x="426.87" y="906" width="174.5" height="40" as="geometry" />
        </mxCell>
        <mxCell id="EV5ATv0Y9bvTsMbR89la-42" value="The develop2 branch" style="text;html=1;strokeColor=none;fillColor=none;align=left;verticalAlign=middle;whiteSpace=wrap;overflow=hidden;fontSize=14;fontStyle=0;fontColor=#009900;" vertex="1" parent="1">
          <mxGeometry x="505" y="941" width="146.75" height="20" as="geometry" />
        </mxCell>
        <mxCell id="EV5ATv0Y9bvTsMbR89la-43" style="edgeStyle=orthogonalEdgeStyle;curved=1;rounded=0;html=1;exitX=1;exitY=0.5;exitPerimeter=0;endArrow=none;endFill=0;jettySize=auto;orthogonalLoop=1;strokeWidth=4;fontSize=15;" edge="1" parent="1" source="EV5ATv0Y9bvTsMbR89la-44" target="EV5ATv0Y9bvTsMbR89la-46">
          <mxGeometry relative="1" as="geometry">
            <Array as="points">
              <mxPoint x="641.75" y="921" />
              <mxPoint x="641.75" y="921" />
            </Array>
          </mxGeometry>
        </mxCell>
        <mxCell id="EV5ATv0Y9bvTsMbR89la-139" value="" style="edgeStyle=orthogonalEdgeStyle;curved=1;rounded=0;sketch=0;orthogonalLoop=1;jettySize=auto;html=1;shadow=0;labelBackgroundColor=default;fontFamily=Helvetica;fontSize=11;fontColor=default;endArrow=none;endFill=0;strokeColor=#000000;strokeWidth=4;fillColor=#DAE8FC;gradientColor=#7EA6E0;entryX=0;entryY=0.5;entryDx=0;entryDy=0;entryPerimeter=0;" edge="1" parent="1" source="EV5ATv0Y9bvTsMbR89la-44" target="EV5ATv0Y9bvTsMbR89la-140">
          <mxGeometry relative="1" as="geometry">
            <mxPoint x="763" y="1075" as="targetPoint" />
          </mxGeometry>
        </mxCell>
        <mxCell id="EV5ATv0Y9bvTsMbR89la-147" value="" style="edgeStyle=orthogonalEdgeStyle;curved=1;rounded=0;sketch=0;orthogonalLoop=1;jettySize=auto;html=1;shadow=0;labelBackgroundColor=default;fontFamily=Helvetica;fontSize=11;fontColor=default;endArrow=none;endFill=0;strokeColor=#000000;strokeWidth=4;fillColor=#DAE8FC;gradientColor=#7EA6E0;" edge="1" parent="1" source="EV5ATv0Y9bvTsMbR89la-44" target="EV5ATv0Y9bvTsMbR89la-148">
          <mxGeometry relative="1" as="geometry">
            <mxPoint x="804" y="1195" as="targetPoint" />
            <Array as="points">
              <mxPoint x="713" y="921" />
              <mxPoint x="713" y="1195" />
            </Array>
          </mxGeometry>
        </mxCell>
        <mxCell id="EV5ATv0Y9bvTsMbR89la-44" value="" style="verticalLabelPosition=bottom;verticalAlign=top;html=1;strokeWidth=4;shape=mxgraph.flowchart.on-page_reference;plain-purple;gradientColor=none;strokeColor=#000000;fillColor=#D5E8D4;" vertex="1" parent="1">
          <mxGeometry x="651.75" y="906" width="30" height="30" as="geometry" />
        </mxCell>
        <mxCell id="EV5ATv0Y9bvTsMbR89la-45" style="edgeStyle=orthogonalEdgeStyle;curved=1;rounded=0;html=1;exitX=1;exitY=0.5;exitPerimeter=0;entryX=0;entryY=0.5;entryPerimeter=0;endArrow=none;endFill=0;jettySize=auto;orthogonalLoop=1;strokeWidth=4;fontSize=15;" edge="1" parent="1" source="EV5ATv0Y9bvTsMbR89la-46" target="EV5ATv0Y9bvTsMbR89la-47">
          <mxGeometry relative="1" as="geometry" />
        </mxCell>
        <mxCell id="EV5ATv0Y9bvTsMbR89la-46" value="" style="verticalLabelPosition=bottom;verticalAlign=top;html=1;strokeWidth=4;shape=mxgraph.flowchart.on-page_reference;plain-purple;gradientColor=none;strokeColor=#000000;fillColor=#D5E8D4;" vertex="1" parent="1">
          <mxGeometry x="923" y="906" width="30" height="30" as="geometry" />
        </mxCell>
        <mxCell id="EV5ATv0Y9bvTsMbR89la-81" value="" style="edgeStyle=orthogonalEdgeStyle;curved=1;rounded=0;orthogonalLoop=1;jettySize=auto;html=1;labelBackgroundColor=default;fontFamily=Helvetica;fontSize=11;fontColor=default;endArrow=none;endFill=0;strokeColor=#000000;strokeWidth=4;fillColor=#DAE8FC;gradientColor=#7EA6E0;" edge="1" parent="1" source="EV5ATv0Y9bvTsMbR89la-47" target="EV5ATv0Y9bvTsMbR89la-80">
          <mxGeometry relative="1" as="geometry" />
        </mxCell>
        <mxCell id="EV5ATv0Y9bvTsMbR89la-47" value="" style="verticalLabelPosition=bottom;verticalAlign=top;html=1;strokeWidth=4;shape=mxgraph.flowchart.on-page_reference;plain-purple;gradientColor=none;strokeColor=#000000;fillColor=#D5E8D4;" vertex="1" parent="1">
          <mxGeometry x="1193" y="906" width="30" height="30" as="geometry" />
        </mxCell>
        <mxCell id="EV5ATv0Y9bvTsMbR89la-78" value="" style="edgeStyle=orthogonalEdgeStyle;curved=1;rounded=0;orthogonalLoop=1;jettySize=auto;html=1;labelBackgroundColor=default;fontFamily=Helvetica;fontSize=11;fontColor=default;endArrow=none;endFill=0;strokeColor=#000000;strokeWidth=4;fillColor=#DAE8FC;gradientColor=#7EA6E0;" edge="1" parent="1" source="EV5ATv0Y9bvTsMbR89la-53" target="EV5ATv0Y9bvTsMbR89la-77">
          <mxGeometry relative="1" as="geometry" />
        </mxCell>
        <mxCell id="EV5ATv0Y9bvTsMbR89la-53" value="" style="verticalLabelPosition=bottom;verticalAlign=top;html=1;strokeWidth=4;shape=mxgraph.flowchart.on-page_reference;plain-purple;gradientColor=none;strokeColor=#000000;fillColor=#D5E8D4;" vertex="1" parent="1">
          <mxGeometry x="911.75" y="698" width="30" height="30" as="geometry" />
        </mxCell>
        <mxCell id="EV5ATv0Y9bvTsMbR89la-58" value="" style="edgeStyle=orthogonalEdgeStyle;rounded=0;orthogonalLoop=1;jettySize=auto;html=1;endArrow=none;endFill=0;strokeWidth=4;" edge="1" parent="1" source="EV5ATv0Y9bvTsMbR89la-59" target="EV5ATv0Y9bvTsMbR89la-60">
          <mxGeometry relative="1" as="geometry">
            <Array as="points">
              <mxPoint x="821.25" y="825" />
              <mxPoint x="821.25" y="825" />
            </Array>
          </mxGeometry>
        </mxCell>
        <mxCell id="EV5ATv0Y9bvTsMbR89la-59" value="" style="verticalLabelPosition=bottom;verticalAlign=top;html=1;strokeWidth=4;shape=mxgraph.flowchart.on-page_reference;strokeColor=#006EAF;fillColor=#1ba1e2;fontColor=#ffffff;" vertex="1" parent="1">
          <mxGeometry x="729.75" y="810" width="30" height="30" as="geometry" />
        </mxCell>
        <mxCell id="EV5ATv0Y9bvTsMbR89la-62" style="edgeStyle=orthogonalEdgeStyle;shape=connector;curved=1;rounded=0;orthogonalLoop=1;jettySize=auto;html=1;entryX=0;entryY=0.5;entryDx=0;entryDy=0;entryPerimeter=0;labelBackgroundColor=default;fontFamily=Helvetica;fontSize=11;fontColor=default;endArrow=none;endFill=0;strokeColor=#000000;strokeWidth=4;fillColor=#DAE8FC;gradientColor=#7EA6E0;" edge="1" parent="1" source="EV5ATv0Y9bvTsMbR89la-60" target="EV5ATv0Y9bvTsMbR89la-53">
          <mxGeometry relative="1" as="geometry" />
        </mxCell>
        <mxCell id="EV5ATv0Y9bvTsMbR89la-60" value="" style="verticalLabelPosition=bottom;verticalAlign=top;html=1;strokeWidth=4;shape=mxgraph.flowchart.on-page_reference;strokeColor=#006EAF;fillColor=#1ba1e2;fontColor=#ffffff;" vertex="1" parent="1">
          <mxGeometry x="806" y="810" width="30" height="30" as="geometry" />
        </mxCell>
        <mxCell id="EV5ATv0Y9bvTsMbR89la-65" value="The feature branch" style="text;html=1;strokeColor=none;fillColor=none;align=left;verticalAlign=middle;whiteSpace=wrap;overflow=hidden;fontSize=14;fontStyle=0;fontColor=#009900;" vertex="1" parent="1">
          <mxGeometry x="605.12" y="830" width="146.75" height="20" as="geometry" />
        </mxCell>
        <mxCell id="EV5ATv0Y9bvTsMbR89la-66" value="feature/xxx" style="text;html=1;strokeColor=none;fillColor=none;align=center;verticalAlign=middle;whiteSpace=wrap;overflow=hidden;fontSize=14;fontStyle=1;fontFamily=Courier New;" vertex="1" parent="1">
          <mxGeometry x="559.25" y="800" width="174.5" height="40" as="geometry" />
        </mxCell>
        <mxCell id="EV5ATv0Y9bvTsMbR89la-67" value="&lt;strike&gt;Tag: sit&lt;/strike&gt;" style="text;html=1;strokeColor=none;fillColor=none;align=center;verticalAlign=middle;whiteSpace=wrap;overflow=hidden;fontSize=14;" vertex="1" parent="1">
          <mxGeometry x="697.25" y="672" width="75.75" height="20" as="geometry" />
        </mxCell>
        <mxCell id="EV5ATv0Y9bvTsMbR89la-70" value="" style="endArrow=classic;html=1;rounded=0;labelBackgroundColor=default;fontFamily=Helvetica;fontSize=11;fontColor=default;strokeColor=#d6b656;strokeWidth=4;fillColor=#fff2cc;curved=1;" edge="1" parent="1" source="EV5ATv0Y9bvTsMbR89la-67">
          <mxGeometry width="50" height="50" relative="1" as="geometry">
            <mxPoint x="776.75" y="681.58" as="sourcePoint" />
            <mxPoint x="895" y="682" as="targetPoint" />
          </mxGeometry>
        </mxCell>
        <mxCell id="EV5ATv0Y9bvTsMbR89la-72" value="Tag: sit" style="text;html=1;strokeColor=none;fillColor=none;align=center;verticalAlign=middle;whiteSpace=wrap;overflow=hidden;fontSize=14;" vertex="1" parent="1">
          <mxGeometry x="888.88" y="672" width="75.75" height="20" as="geometry" />
        </mxCell>
        <mxCell id="EV5ATv0Y9bvTsMbR89la-73" value="Tag: uat" style="text;html=1;strokeColor=none;fillColor=none;align=center;verticalAlign=middle;whiteSpace=wrap;overflow=hidden;fontSize=14;" vertex="1" parent="1">
          <mxGeometry x="888.88" y="652" width="75.75" height="20" as="geometry" />
        </mxCell>
        <mxCell id="EV5ATv0Y9bvTsMbR89la-74" value="&lt;strike&gt;Tag: prd&lt;/strike&gt;" style="text;html=1;strokeColor=none;fillColor=none;align=center;verticalAlign=middle;whiteSpace=wrap;overflow=hidden;fontSize=14;" vertex="1" parent="1">
          <mxGeometry x="1008.8800000000001" y="472" width="75.75" height="20" as="geometry" />
        </mxCell>
        <mxCell id="EV5ATv0Y9bvTsMbR89la-91" value="" style="edgeStyle=orthogonalEdgeStyle;curved=1;rounded=0;orthogonalLoop=1;jettySize=auto;html=1;labelBackgroundColor=default;fontFamily=Helvetica;fontSize=11;fontColor=default;endArrow=none;endFill=0;strokeColor=#000000;strokeWidth=4;fillColor=#DAE8FC;gradientColor=#7EA6E0;" edge="1" parent="1" source="EV5ATv0Y9bvTsMbR89la-77" target="EV5ATv0Y9bvTsMbR89la-90">
          <mxGeometry relative="1" as="geometry" />
        </mxCell>
        <mxCell id="EV5ATv0Y9bvTsMbR89la-77" value="" style="verticalLabelPosition=bottom;verticalAlign=top;html=1;strokeWidth=4;shape=mxgraph.flowchart.on-page_reference;plain-purple;gradientColor=none;strokeColor=#000000;fillColor=#D5E8D4;" vertex="1" parent="1">
          <mxGeometry x="1165" y="698" width="30" height="30" as="geometry" />
        </mxCell>
        <mxCell id="EV5ATv0Y9bvTsMbR89la-105" style="edgeStyle=orthogonalEdgeStyle;curved=1;rounded=0;sketch=0;orthogonalLoop=1;jettySize=auto;html=1;entryX=0;entryY=0.5;entryDx=0;entryDy=0;entryPerimeter=0;shadow=0;labelBackgroundColor=default;fontFamily=Helvetica;fontSize=11;fontColor=default;endArrow=none;endFill=0;strokeColor=#000000;strokeWidth=4;fillColor=#DAE8FC;gradientColor=#7EA6E0;" edge="1" parent="1" source="EV5ATv0Y9bvTsMbR89la-80" target="EV5ATv0Y9bvTsMbR89la-104">
          <mxGeometry relative="1" as="geometry" />
        </mxCell>
        <mxCell id="EV5ATv0Y9bvTsMbR89la-80" value="" style="verticalLabelPosition=bottom;verticalAlign=top;html=1;strokeWidth=4;shape=mxgraph.flowchart.on-page_reference;plain-purple;gradientColor=none;strokeColor=#000000;fillColor=#D5E8D4;" vertex="1" parent="1">
          <mxGeometry x="1493" y="906" width="30" height="30" as="geometry" />
        </mxCell>
        <mxCell id="EV5ATv0Y9bvTsMbR89la-92" style="edgeStyle=orthogonalEdgeStyle;curved=1;rounded=0;orthogonalLoop=1;jettySize=auto;html=1;entryX=0;entryY=0.5;entryDx=0;entryDy=0;entryPerimeter=0;labelBackgroundColor=default;fontFamily=Helvetica;fontSize=11;fontColor=default;endArrow=none;endFill=0;strokeColor=#000000;strokeWidth=4;fillColor=#DAE8FC;gradientColor=#7EA6E0;" edge="1" parent="1" source="EV5ATv0Y9bvTsMbR89la-84" target="EV5ATv0Y9bvTsMbR89la-90">
          <mxGeometry relative="1" as="geometry" />
        </mxCell>
        <mxCell id="EV5ATv0Y9bvTsMbR89la-94" value="" style="edgeStyle=orthogonalEdgeStyle;curved=1;rounded=0;orthogonalLoop=1;jettySize=auto;html=1;labelBackgroundColor=default;fontFamily=Helvetica;fontSize=11;fontColor=default;endArrow=none;endFill=0;strokeColor=#000000;strokeWidth=4;fillColor=#DAE8FC;gradientColor=#7EA6E0;" edge="1" parent="1" source="EV5ATv0Y9bvTsMbR89la-84" target="EV5ATv0Y9bvTsMbR89la-104">
          <mxGeometry relative="1" as="geometry">
            <mxPoint x="1705" y="533" as="targetPoint" />
          </mxGeometry>
        </mxCell>
        <mxCell id="EV5ATv0Y9bvTsMbR89la-95" style="edgeStyle=orthogonalEdgeStyle;curved=1;rounded=0;orthogonalLoop=1;jettySize=auto;html=1;entryX=0;entryY=0.5;entryDx=0;entryDy=0;entryPerimeter=0;labelBackgroundColor=default;fontFamily=Helvetica;fontSize=11;fontColor=default;endArrow=none;endFill=0;strokeColor=#000000;strokeWidth=4;fillColor=#DAE8FC;gradientColor=#7EA6E0;" edge="1" parent="1" source="EV5ATv0Y9bvTsMbR89la-84" target="EV5ATv0Y9bvTsMbR89la-80">
          <mxGeometry relative="1" as="geometry" />
        </mxCell>
        <mxCell id="EV5ATv0Y9bvTsMbR89la-84" value="" style="verticalLabelPosition=bottom;verticalAlign=top;html=1;strokeWidth=4;shape=mxgraph.flowchart.on-page_reference;plain-blue;gradientColor=#EA6B66;strokeColor=#B85450;fillColor=#F8CECC;" vertex="1" parent="1">
          <mxGeometry x="1345" y="518" width="30" height="30" as="geometry" />
        </mxCell>
        <mxCell id="EV5ATv0Y9bvTsMbR89la-88" value="hotfix/xxx" style="text;html=1;strokeColor=none;fillColor=none;align=center;verticalAlign=middle;whiteSpace=wrap;overflow=hidden;fontSize=14;fontStyle=1;fontFamily=Courier New;" vertex="1" parent="1">
          <mxGeometry x="1035" y="340" width="174.5" height="40" as="geometry" />
        </mxCell>
        <mxCell id="EV5ATv0Y9bvTsMbR89la-89" value="&lt;span style=&quot;color: rgb(0 , 153 , 0) ; font-family: &amp;#34;helvetica&amp;#34; ; font-size: 14px ; font-style: normal ; font-weight: 400 ; letter-spacing: normal ; text-align: left ; text-indent: 0px ; text-transform: none ; word-spacing: 0px ; background-color: rgb(248 , 249 , 250) ; display: inline ; float: none&quot;&gt;The hotfix branch&lt;/span&gt;" style="text;whiteSpace=wrap;html=1;fontSize=11;fontFamily=Helvetica;fontColor=default;" vertex="1" parent="1">
          <mxGeometry x="1065" y="370" width="140" height="30" as="geometry" />
        </mxCell>
        <mxCell id="EV5ATv0Y9bvTsMbR89la-120" value="" style="edgeStyle=orthogonalEdgeStyle;curved=1;rounded=0;sketch=0;orthogonalLoop=1;jettySize=auto;html=1;shadow=0;labelBackgroundColor=default;fontFamily=Helvetica;fontSize=11;fontColor=default;endArrow=none;endFill=0;strokeColor=#000000;strokeWidth=4;fillColor=#DAE8FC;gradientColor=#7EA6E0;" edge="1" parent="1" source="EV5ATv0Y9bvTsMbR89la-90" target="EV5ATv0Y9bvTsMbR89la-119">
          <mxGeometry relative="1" as="geometry" />
        </mxCell>
        <mxCell id="EV5ATv0Y9bvTsMbR89la-90" value="" style="verticalLabelPosition=bottom;verticalAlign=top;html=1;strokeWidth=4;shape=mxgraph.flowchart.on-page_reference;plain-purple;gradientColor=none;strokeColor=#000000;fillColor=#D5E8D4;" vertex="1" parent="1">
          <mxGeometry x="1525" y="698" width="30" height="30" as="geometry" />
        </mxCell>
        <mxCell id="EV5ATv0Y9bvTsMbR89la-97" value="&lt;strike&gt;Tag: sit&lt;/strike&gt;" style="text;html=1;strokeColor=none;fillColor=none;align=center;verticalAlign=middle;whiteSpace=wrap;overflow=hidden;fontSize=14;" vertex="1" parent="1">
          <mxGeometry x="1173" y="881" width="75.75" height="20" as="geometry" />
        </mxCell>
        <mxCell id="EV5ATv0Y9bvTsMbR89la-98" value="" style="endArrow=classic;html=1;rounded=0;labelBackgroundColor=default;fontFamily=Helvetica;fontSize=11;fontColor=default;strokeColor=#d6b656;strokeWidth=4;fillColor=#fff2cc;curved=1;" edge="1" parent="1" source="EV5ATv0Y9bvTsMbR89la-97">
          <mxGeometry width="50" height="50" relative="1" as="geometry">
            <mxPoint x="1252.5" y="890.5799999999999" as="sourcePoint" />
            <mxPoint x="1453" y="891" as="targetPoint" />
          </mxGeometry>
        </mxCell>
        <mxCell id="EV5ATv0Y9bvTsMbR89la-99" value="Tag: sit" style="text;html=1;strokeColor=none;fillColor=none;align=center;verticalAlign=middle;whiteSpace=wrap;overflow=hidden;fontSize=14;" vertex="1" parent="1">
          <mxGeometry x="1470.13" y="881" width="75.75" height="20" as="geometry" />
        </mxCell>
        <mxCell id="EV5ATv0Y9bvTsMbR89la-100" value="Tag: uat" style="text;html=1;strokeColor=none;fillColor=none;align=center;verticalAlign=middle;whiteSpace=wrap;overflow=hidden;fontSize=14;" vertex="1" parent="1">
          <mxGeometry x="1470.13" y="861" width="75.75" height="20" as="geometry" />
        </mxCell>
        <mxCell id="EV5ATv0Y9bvTsMbR89la-101" value="Tag: v1.1.1" style="text;html=1;strokeColor=none;fillColor=none;align=center;verticalAlign=middle;whiteSpace=wrap;overflow=hidden;fontSize=14;" vertex="1" parent="1">
          <mxGeometry x="1305" y="492" width="110" height="20" as="geometry" />
        </mxCell>
        <mxCell id="EV5ATv0Y9bvTsMbR89la-102" value="&lt;strike&gt;Tag: prd&lt;/strike&gt;" style="text;html=1;strokeColor=none;fillColor=none;align=center;verticalAlign=middle;whiteSpace=wrap;overflow=hidden;fontSize=14;" vertex="1" parent="1">
          <mxGeometry x="1322.13" y="472" width="75.75" height="20" as="geometry" />
        </mxCell>
        <mxCell id="EV5ATv0Y9bvTsMbR89la-103" value="" style="endArrow=classic;html=1;rounded=0;labelBackgroundColor=default;fontFamily=Helvetica;fontSize=11;fontColor=default;strokeColor=#d6b656;strokeWidth=4;fillColor=#fff2cc;curved=1;" edge="1" parent="1">
          <mxGeometry width="50" height="50" relative="1" as="geometry">
            <mxPoint x="1083.0000000000005" y="481.2900000000002" as="sourcePoint" />
            <mxPoint x="1325" y="481" as="targetPoint" />
          </mxGeometry>
        </mxCell>
        <mxCell id="EV5ATv0Y9bvTsMbR89la-116" style="edgeStyle=orthogonalEdgeStyle;curved=1;rounded=0;sketch=0;orthogonalLoop=1;jettySize=auto;html=1;entryX=0;entryY=0.5;entryDx=0;entryDy=0;entryPerimeter=0;shadow=0;labelBackgroundColor=default;fontFamily=Helvetica;fontSize=11;fontColor=default;endArrow=none;endFill=0;strokeColor=#000000;strokeWidth=4;fillColor=#DAE8FC;gradientColor=#7EA6E0;" edge="1" parent="1" source="EV5ATv0Y9bvTsMbR89la-104" target="EV5ATv0Y9bvTsMbR89la-114">
          <mxGeometry relative="1" as="geometry" />
        </mxCell>
        <mxCell id="EV5ATv0Y9bvTsMbR89la-118" value="" style="edgeStyle=orthogonalEdgeStyle;curved=1;rounded=0;sketch=0;orthogonalLoop=1;jettySize=auto;html=1;shadow=0;labelBackgroundColor=default;fontFamily=Helvetica;fontSize=11;fontColor=default;endArrow=none;endFill=0;strokeColor=#000000;strokeWidth=4;fillColor=#DAE8FC;gradientColor=#7EA6E0;" edge="1" parent="1" source="EV5ATv0Y9bvTsMbR89la-104" target="EV5ATv0Y9bvTsMbR89la-117">
          <mxGeometry relative="1" as="geometry" />
        </mxCell>
        <mxCell id="EV5ATv0Y9bvTsMbR89la-104" value="" style="verticalLabelPosition=bottom;verticalAlign=top;html=1;strokeWidth=4;shape=mxgraph.flowchart.on-page_reference;plain-blue;gradientColor=none;fillColor=#B5E3Fe;strokeColor=#000000;" vertex="1" parent="1">
          <mxGeometry x="1665" y="518" width="30" height="30" as="geometry" />
        </mxCell>
        <mxCell id="EV5ATv0Y9bvTsMbR89la-108" value="Hotfix version" style="text;html=1;strokeColor=none;fillColor=none;align=center;verticalAlign=middle;whiteSpace=wrap;overflow=hidden;" vertex="1" parent="1">
          <mxGeometry x="1305" y="548" width="80" height="30" as="geometry" />
        </mxCell>
        <mxCell id="EV5ATv0Y9bvTsMbR89la-110" value="Tag: v2.0.0" style="text;html=1;strokeColor=none;fillColor=none;align=center;verticalAlign=middle;whiteSpace=wrap;overflow=hidden;fontSize=14;" vertex="1" parent="1">
          <mxGeometry x="1619.88" y="492" width="110" height="20" as="geometry" />
        </mxCell>
        <mxCell id="EV5ATv0Y9bvTsMbR89la-111" value="&lt;strike&gt;Tag: prd&lt;/strike&gt;" style="text;html=1;strokeColor=none;fillColor=none;align=center;verticalAlign=middle;whiteSpace=wrap;overflow=hidden;fontSize=14;" vertex="1" parent="1">
          <mxGeometry x="1637.0100000000002" y="472" width="75.75" height="20" as="geometry" />
        </mxCell>
        <mxCell id="EV5ATv0Y9bvTsMbR89la-112" value="" style="endArrow=classic;html=1;rounded=0;labelBackgroundColor=default;fontFamily=Helvetica;fontSize=11;fontColor=default;strokeColor=#d6b656;strokeWidth=4;fillColor=#fff2cc;curved=1;" edge="1" parent="1">
          <mxGeometry width="50" height="50" relative="1" as="geometry">
            <mxPoint x="1397.8800000000006" y="481.28999999999996" as="sourcePoint" />
            <mxPoint x="1639.8799999999997" y="481" as="targetPoint" />
          </mxGeometry>
        </mxCell>
        <mxCell id="EV5ATv0Y9bvTsMbR89la-124" value="" style="edgeStyle=orthogonalEdgeStyle;curved=1;rounded=0;sketch=0;orthogonalLoop=1;jettySize=auto;html=1;shadow=0;labelBackgroundColor=default;fontFamily=Helvetica;fontSize=11;fontColor=default;endArrow=none;endFill=0;strokeColor=#000000;strokeWidth=4;fillColor=#DAE8FC;gradientColor=#7EA6E0;" edge="1" parent="1" source="EV5ATv0Y9bvTsMbR89la-114" target="EV5ATv0Y9bvTsMbR89la-123">
          <mxGeometry relative="1" as="geometry" />
        </mxCell>
        <mxCell id="EV5ATv0Y9bvTsMbR89la-114" value="" style="verticalLabelPosition=bottom;verticalAlign=top;html=1;strokeWidth=4;shape=mxgraph.flowchart.on-page_reference;plain-purple;gradientColor=none;strokeColor=#000000;fillColor=#D5E8D4;" vertex="1" parent="1">
          <mxGeometry x="1815" y="698" width="30" height="30" as="geometry" />
        </mxCell>
        <mxCell id="EV5ATv0Y9bvTsMbR89la-117" value="" style="verticalLabelPosition=bottom;verticalAlign=top;html=1;strokeWidth=4;shape=mxgraph.flowchart.on-page_reference;plain-blue;gradientColor=none;fillColor=#B5E3Fe;strokeColor=#000000;" vertex="1" parent="1">
          <mxGeometry x="2085" y="518" width="30" height="30" as="geometry" />
        </mxCell>
        <mxCell id="EV5ATv0Y9bvTsMbR89la-121" style="edgeStyle=orthogonalEdgeStyle;curved=1;rounded=0;sketch=0;orthogonalLoop=1;jettySize=auto;html=1;shadow=0;labelBackgroundColor=default;fontFamily=Helvetica;fontSize=11;fontColor=default;endArrow=none;endFill=0;strokeColor=#000000;strokeWidth=4;fillColor=#DAE8FC;gradientColor=#7EA6E0;" edge="1" parent="1" source="EV5ATv0Y9bvTsMbR89la-119">
          <mxGeometry relative="1" as="geometry">
            <mxPoint x="1815" y="713" as="targetPoint" />
          </mxGeometry>
        </mxCell>
        <mxCell id="EV5ATv0Y9bvTsMbR89la-119" value="" style="verticalLabelPosition=bottom;verticalAlign=top;html=1;strokeWidth=4;shape=mxgraph.flowchart.on-page_reference;plain-purple;gradientColor=none;strokeColor=#000000;fillColor=#D5E8D4;" vertex="1" parent="1">
          <mxGeometry x="1665" y="698" width="30" height="30" as="geometry" />
        </mxCell>
        <mxCell id="EV5ATv0Y9bvTsMbR89la-125" style="edgeStyle=orthogonalEdgeStyle;curved=1;rounded=0;sketch=0;orthogonalLoop=1;jettySize=auto;html=1;entryX=0;entryY=0.5;entryDx=0;entryDy=0;entryPerimeter=0;shadow=0;labelBackgroundColor=default;fontFamily=Helvetica;fontSize=11;fontColor=default;endArrow=none;endFill=0;strokeColor=#000000;strokeWidth=4;fillColor=#DAE8FC;gradientColor=#7EA6E0;" edge="1" parent="1" source="EV5ATv0Y9bvTsMbR89la-123" target="EV5ATv0Y9bvTsMbR89la-117">
          <mxGeometry relative="1" as="geometry" />
        </mxCell>
        <mxCell id="EV5ATv0Y9bvTsMbR89la-123" value="" style="verticalLabelPosition=bottom;verticalAlign=top;html=1;strokeWidth=4;shape=mxgraph.flowchart.on-page_reference;plain-purple;gradientColor=none;strokeColor=#000000;fillColor=#D5E8D4;" vertex="1" parent="1">
          <mxGeometry x="1965" y="698" width="30" height="30" as="geometry" />
        </mxCell>
        <mxCell id="EV5ATv0Y9bvTsMbR89la-127" value="Tag: v2.1.0" style="text;html=1;strokeColor=none;fillColor=none;align=center;verticalAlign=middle;whiteSpace=wrap;overflow=hidden;fontSize=14;" vertex="1" parent="1">
          <mxGeometry x="2035" y="492" width="110" height="20" as="geometry" />
        </mxCell>
        <mxCell id="EV5ATv0Y9bvTsMbR89la-128" value="Tag: prd" style="text;html=1;strokeColor=none;fillColor=none;align=center;verticalAlign=middle;whiteSpace=wrap;overflow=hidden;fontSize=14;" vertex="1" parent="1">
          <mxGeometry x="2052.13" y="472" width="75.75" height="20" as="geometry" />
        </mxCell>
        <mxCell id="EV5ATv0Y9bvTsMbR89la-129" value="" style="endArrow=classic;html=1;rounded=0;labelBackgroundColor=default;fontFamily=Helvetica;fontSize=11;fontColor=default;strokeColor=#d6b656;strokeWidth=4;fillColor=#fff2cc;curved=1;entryX=0;entryY=0.5;entryDx=0;entryDy=0;" edge="1" parent="1" target="EV5ATv0Y9bvTsMbR89la-128">
          <mxGeometry width="50" height="50" relative="1" as="geometry">
            <mxPoint x="1723.0000000000005" y="481.69999999999993" as="sourcePoint" />
            <mxPoint x="1964.999999999999" y="481.40999999999997" as="targetPoint" />
          </mxGeometry>
        </mxCell>
        <mxCell id="EV5ATv0Y9bvTsMbR89la-130" value="&lt;strike&gt;Tag: sit&lt;/strike&gt;" style="text;html=1;strokeColor=none;fillColor=none;align=center;verticalAlign=middle;whiteSpace=wrap;overflow=hidden;fontSize=14;" vertex="1" parent="1">
          <mxGeometry x="1643.56" y="672" width="75.75" height="20" as="geometry" />
        </mxCell>
        <mxCell id="EV5ATv0Y9bvTsMbR89la-131" value="" style="endArrow=classic;html=1;rounded=0;labelBackgroundColor=default;fontFamily=Helvetica;fontSize=11;fontColor=default;strokeColor=#d6b656;strokeWidth=4;fillColor=#fff2cc;curved=1;" edge="1" parent="1" source="EV5ATv0Y9bvTsMbR89la-130">
          <mxGeometry width="50" height="50" relative="1" as="geometry">
            <mxPoint x="1723.06" y="681.5799999999999" as="sourcePoint" />
            <mxPoint x="1805" y="682" as="targetPoint" />
          </mxGeometry>
        </mxCell>
        <mxCell id="EV5ATv0Y9bvTsMbR89la-132" value="Tag: sit" style="text;html=1;strokeColor=none;fillColor=none;align=center;verticalAlign=middle;whiteSpace=wrap;overflow=hidden;fontSize=14;" vertex="1" parent="1">
          <mxGeometry x="1940.69" y="672" width="75.75" height="20" as="geometry" />
        </mxCell>
        <mxCell id="EV5ATv0Y9bvTsMbR89la-133" value="Tag: uat" style="text;html=1;strokeColor=none;fillColor=none;align=center;verticalAlign=middle;whiteSpace=wrap;overflow=hidden;fontSize=14;" vertex="1" parent="1">
          <mxGeometry x="1940.69" y="652" width="75.75" height="20" as="geometry" />
        </mxCell>
        <mxCell id="EV5ATv0Y9bvTsMbR89la-134" value="&lt;strike&gt;Tag: sit&lt;/strike&gt;" style="text;html=1;strokeColor=none;fillColor=none;align=center;verticalAlign=middle;whiteSpace=wrap;overflow=hidden;fontSize=14;" vertex="1" parent="1">
          <mxGeometry x="1792.1200000000001" y="672" width="75.75" height="20" as="geometry" />
        </mxCell>
        <mxCell id="EV5ATv0Y9bvTsMbR89la-135" value="&lt;strike&gt;Tag: uat&lt;/strike&gt;" style="text;html=1;strokeColor=none;fillColor=none;align=center;verticalAlign=middle;whiteSpace=wrap;overflow=hidden;fontSize=14;" vertex="1" parent="1">
          <mxGeometry x="1792.1200000000001" y="652" width="75.75" height="20" as="geometry" />
        </mxCell>
        <mxCell id="EV5ATv0Y9bvTsMbR89la-137" value="" style="endArrow=classic;html=1;rounded=0;labelBackgroundColor=default;fontFamily=Helvetica;fontSize=11;fontColor=default;strokeColor=#d6b656;strokeWidth=4;fillColor=#fff2cc;curved=1;" edge="1" parent="1">
          <mxGeometry width="50" height="50" relative="1" as="geometry">
            <mxPoint x="1865" y="681.5" as="sourcePoint" />
            <mxPoint x="1950.69" y="681.5" as="targetPoint" />
          </mxGeometry>
        </mxCell>
        <mxCell id="EV5ATv0Y9bvTsMbR89la-142" value="" style="edgeStyle=orthogonalEdgeStyle;curved=1;rounded=0;sketch=0;orthogonalLoop=1;jettySize=auto;html=1;shadow=0;labelBackgroundColor=default;fontFamily=Helvetica;fontSize=11;fontColor=default;endArrow=none;endFill=0;strokeColor=#000000;strokeWidth=4;fillColor=#DAE8FC;gradientColor=#7EA6E0;" edge="1" parent="1" source="EV5ATv0Y9bvTsMbR89la-140" target="EV5ATv0Y9bvTsMbR89la-141">
          <mxGeometry relative="1" as="geometry" />
        </mxCell>
        <mxCell id="EV5ATv0Y9bvTsMbR89la-140" value="" style="verticalLabelPosition=bottom;verticalAlign=top;html=1;strokeWidth=4;shape=mxgraph.flowchart.on-page_reference;strokeColor=#006EAF;fillColor=#1ba1e2;fontColor=#ffffff;" vertex="1" parent="1">
          <mxGeometry x="760.75" y="1050" width="30" height="30" as="geometry" />
        </mxCell>
        <mxCell id="EV5ATv0Y9bvTsMbR89la-143" style="edgeStyle=orthogonalEdgeStyle;curved=1;rounded=0;sketch=0;orthogonalLoop=1;jettySize=auto;html=1;entryX=0;entryY=0.5;entryDx=0;entryDy=0;entryPerimeter=0;shadow=0;labelBackgroundColor=default;fontFamily=Helvetica;fontSize=11;fontColor=default;endArrow=none;endFill=0;strokeColor=#000000;strokeWidth=4;fillColor=#DAE8FC;gradientColor=#7EA6E0;" edge="1" parent="1" source="EV5ATv0Y9bvTsMbR89la-141" target="EV5ATv0Y9bvTsMbR89la-46">
          <mxGeometry relative="1" as="geometry" />
        </mxCell>
        <mxCell id="EV5ATv0Y9bvTsMbR89la-141" value="" style="verticalLabelPosition=bottom;verticalAlign=top;html=1;strokeWidth=4;shape=mxgraph.flowchart.on-page_reference;strokeColor=#006EAF;fillColor=#1ba1e2;fontColor=#ffffff;" vertex="1" parent="1">
          <mxGeometry x="824.75" y="1050" width="30" height="30" as="geometry" />
        </mxCell>
        <mxCell id="EV5ATv0Y9bvTsMbR89la-144" value="The feature branch" style="text;html=1;strokeColor=none;fillColor=none;align=left;verticalAlign=middle;whiteSpace=wrap;overflow=hidden;fontSize=14;fontStyle=0;fontColor=#009900;" vertex="1" parent="1">
          <mxGeometry x="900.62" y="1045" width="146.75" height="20" as="geometry" />
        </mxCell>
        <mxCell id="EV5ATv0Y9bvTsMbR89la-145" value="feature/yyy" style="text;html=1;strokeColor=none;fillColor=none;align=center;verticalAlign=middle;whiteSpace=wrap;overflow=hidden;fontSize=14;fontStyle=1;fontFamily=Courier New;" vertex="1" parent="1">
          <mxGeometry x="854.75" y="1015" width="174.5" height="40" as="geometry" />
        </mxCell>
        <mxCell id="EV5ATv0Y9bvTsMbR89la-150" value="" style="edgeStyle=orthogonalEdgeStyle;curved=1;rounded=0;sketch=0;orthogonalLoop=1;jettySize=auto;html=1;shadow=0;labelBackgroundColor=default;fontFamily=Helvetica;fontSize=11;fontColor=default;endArrow=none;endFill=0;strokeColor=#000000;strokeWidth=4;fillColor=#DAE8FC;gradientColor=#7EA6E0;" edge="1" parent="1" source="EV5ATv0Y9bvTsMbR89la-148" target="EV5ATv0Y9bvTsMbR89la-149">
          <mxGeometry relative="1" as="geometry" />
        </mxCell>
        <mxCell id="EV5ATv0Y9bvTsMbR89la-148" value="" style="verticalLabelPosition=bottom;verticalAlign=top;html=1;strokeWidth=4;shape=mxgraph.flowchart.on-page_reference;strokeColor=#006EAF;fillColor=#1ba1e2;fontColor=#ffffff;" vertex="1" parent="1">
          <mxGeometry x="813" y="1180" width="30" height="30" as="geometry" />
        </mxCell>
        <mxCell id="EV5ATv0Y9bvTsMbR89la-152" value="" style="edgeStyle=orthogonalEdgeStyle;curved=1;rounded=0;sketch=0;orthogonalLoop=1;jettySize=auto;html=1;shadow=0;labelBackgroundColor=default;fontFamily=Helvetica;fontSize=11;fontColor=default;endArrow=none;endFill=0;strokeColor=#000000;strokeWidth=4;fillColor=#DAE8FC;gradientColor=#7EA6E0;" edge="1" parent="1" source="EV5ATv0Y9bvTsMbR89la-149" target="EV5ATv0Y9bvTsMbR89la-151">
          <mxGeometry relative="1" as="geometry" />
        </mxCell>
        <mxCell id="EV5ATv0Y9bvTsMbR89la-149" value="" style="verticalLabelPosition=bottom;verticalAlign=top;html=1;strokeWidth=4;shape=mxgraph.flowchart.on-page_reference;strokeColor=#006EAF;fillColor=#1ba1e2;fontColor=#ffffff;" vertex="1" parent="1">
          <mxGeometry x="923" y="1180" width="30" height="30" as="geometry" />
        </mxCell>
        <mxCell id="EV5ATv0Y9bvTsMbR89la-154" value="" style="edgeStyle=orthogonalEdgeStyle;curved=1;rounded=0;sketch=0;orthogonalLoop=1;jettySize=auto;html=1;shadow=0;labelBackgroundColor=default;fontFamily=Helvetica;fontSize=11;fontColor=default;endArrow=none;endFill=0;strokeColor=#000000;strokeWidth=4;fillColor=#DAE8FC;gradientColor=#7EA6E0;entryX=0;entryY=0.5;entryDx=0;entryDy=0;entryPerimeter=0;" edge="1" parent="1" source="EV5ATv0Y9bvTsMbR89la-151" target="EV5ATv0Y9bvTsMbR89la-47">
          <mxGeometry relative="1" as="geometry">
            <mxPoint x="1143" y="1195" as="targetPoint" />
          </mxGeometry>
        </mxCell>
        <mxCell id="EV5ATv0Y9bvTsMbR89la-151" value="" style="verticalLabelPosition=bottom;verticalAlign=top;html=1;strokeWidth=4;shape=mxgraph.flowchart.on-page_reference;strokeColor=#006EAF;fillColor=#1ba1e2;fontColor=#ffffff;" vertex="1" parent="1">
          <mxGeometry x="1033" y="1180" width="30" height="30" as="geometry" />
        </mxCell>
        <mxCell id="EV5ATv0Y9bvTsMbR89la-155" value="The feature branch" style="text;html=1;strokeColor=none;fillColor=none;align=left;verticalAlign=middle;whiteSpace=wrap;overflow=hidden;fontSize=14;fontStyle=0;fontColor=#009900;" vertex="1" parent="1">
          <mxGeometry x="624.06" y="1190" width="146.75" height="20" as="geometry" />
        </mxCell>
        <mxCell id="EV5ATv0Y9bvTsMbR89la-156" value="feature/zzz" style="text;html=1;strokeColor=none;fillColor=none;align=center;verticalAlign=middle;whiteSpace=wrap;overflow=hidden;fontSize=14;fontStyle=1;fontFamily=Courier New;" vertex="1" parent="1">
          <mxGeometry x="578.19" y="1160" width="174.5" height="40" as="geometry" />
        </mxCell>
        <mxCell id="EV5ATv0Y9bvTsMbR89la-157" value="" style="endArrow=classic;html=1;strokeWidth=1;fontFamily=Courier New;fontColor=#009900;entryX=1;entryY=1;entryDx=0;entryDy=0;" edge="1" parent="1" source="EV5ATv0Y9bvTsMbR89la-158" target="EV5ATv0Y9bvTsMbR89la-97">
          <mxGeometry width="50" height="50" relative="1" as="geometry">
            <mxPoint x="1338" y="933" as="sourcePoint" />
            <mxPoint x="1213" y="950" as="targetPoint" />
          </mxGeometry>
        </mxCell>
        <mxCell id="EV5ATv0Y9bvTsMbR89la-158" value="&lt;span style=&quot;text-align: center&quot;&gt;&lt;font style=&quot;font-size: 14px&quot;&gt;Tag sit/uat 标记的commit代表发版该版本到对应的SIT与UAT环境，当发现bugs时，重新提交新的commit后，重新标记Tag sit/uat在新的commit上,再重新发版&lt;/font&gt;&lt;br&gt;&lt;/span&gt;" style="text;html=1;strokeColor=none;fillColor=none;align=left;verticalAlign=middle;whiteSpace=wrap;overflow=hidden;fontSize=12;fontStyle=0;fontColor=#000000;" vertex="1" parent="1">
          <mxGeometry x="1253" y="1014" width="210" height="146" as="geometry" />
        </mxCell>
        <mxCell id="EV5ATv0Y9bvTsMbR89la-161" value="" style="endArrow=classic;html=1;strokeWidth=1;fontFamily=Courier New;fontColor=#009900;" edge="1" parent="1" source="EV5ATv0Y9bvTsMbR89la-158">
          <mxGeometry width="50" height="50" relative="1" as="geometry">
            <mxPoint x="1368" y="1024" as="sourcePoint" />
            <mxPoint x="1453" y="900" as="targetPoint" />
          </mxGeometry>
        </mxCell>
        <mxCell id="EV5ATv0Y9bvTsMbR89la-163" value="" style="endArrow=classic;html=1;strokeWidth=1;fontFamily=Courier New;fontColor=#009900;" edge="1" parent="1">
          <mxGeometry width="50" height="50" relative="1" as="geometry">
            <mxPoint x="1909.38" y="758" as="sourcePoint" />
            <mxPoint x="1909.38" y="718" as="targetPoint" />
          </mxGeometry>
        </mxCell>
        <mxCell id="EV5ATv0Y9bvTsMbR89la-164" value="&lt;div style=&quot;text-indent: 10px&quot;&gt;&lt;span style=&quot;text-align: center&quot;&gt;日常开发分支develop，一般对应版本化需求迭代，双周发版/每月发版&lt;/span&gt;&lt;/div&gt;" style="text;html=1;strokeColor=none;fillColor=none;align=left;verticalAlign=middle;whiteSpace=wrap;overflow=hidden;fontSize=12;fontStyle=0;fontColor=#000000;" vertex="1" parent="1">
          <mxGeometry x="1884.38" y="759" width="280.62" height="61" as="geometry" />
        </mxCell>
        <mxCell id="EV5ATv0Y9bvTsMbR89la-165" value="" style="endArrow=classic;html=1;strokeWidth=1;fontFamily=Courier New;fontColor=#009900;" edge="1" parent="1">
          <mxGeometry width="50" height="50" relative="1" as="geometry">
            <mxPoint x="1564.5" y="952" as="sourcePoint" />
            <mxPoint x="1564.5" y="912" as="targetPoint" />
          </mxGeometry>
        </mxCell>
        <mxCell id="EV5ATv0Y9bvTsMbR89la-166" value="&lt;div style=&quot;text-indent: 10px&quot;&gt;&lt;span style=&quot;text-align: center&quot;&gt;大需求开发分支develop/xxx，一般对应非版本化需求迭代，需求复杂，需要长达数月的开发/测试周期&lt;/span&gt;&lt;/div&gt;" style="text;html=1;strokeColor=none;fillColor=none;align=left;verticalAlign=middle;whiteSpace=wrap;overflow=hidden;fontSize=12;fontStyle=0;fontColor=#000000;" vertex="1" parent="1">
          <mxGeometry x="1539.5" y="953" width="280.62" height="61" as="geometry" />
        </mxCell>
      </root>
    </mxGraphModel>
  </diagram>
</mxfile>
